<?xml version="1.0" encoding="utf-8"?>
<!-- Generator: Adobe Illustrator 16.0.0, SVG Export Plug-In . SVG Version: 6.00 Build 0)  -->
<!DOCTYPE svg PUBLIC "-//W3C//DTD SVG 1.1//EN" "http://www.w3.org/Graphics/SVG/1.1/DTD/svg11.dtd">
<svg version="1.1"
	 id="svg2" xmlns:osb="http://www.openswatchbook.org/uri/2009/osb" xmlns:cc="http://creativecommons.org/ns#" xmlns:dc="http://purl.org/dc/elements/1.1/" xmlns:inkscape="http://www.inkscape.org/namespaces/inkscape" xmlns:rdf="http://www.w3.org/1999/02/22-rdf-syntax-ns#" xmlns:sodipodi="http://sodipodi.sourceforge.net/DTD/sodipodi-0.dtd" xmlns:svg="http://www.w3.org/2000/svg" inkscape:version="0.48.3.1 r9886" sodipodi:docname="Adobe_Flash_Player_10.png"
	 xmlns="http://www.w3.org/2000/svg" xmlns:xlink="http://www.w3.org/1999/xlink" x="0px" y="0px" width="512px" height="512px"
	 viewBox="205.518 269.541 512 512" enable-background="new 205.518 269.541 512 512" xml:space="preserve">
<defs>
	
	
		<inkscape:perspective  sodipodi:type="inkscape:persp3d" inkscape:vp_z="1106.4104 : 523.60261 : 1" inkscape:vp_y="0 : 1000 : 0" id="perspective3830" inkscape:vp_x="14.801303 : 428.87427 : 1" inkscape:persp3d-origin="494 : 329.33333 : 1">
		</inkscape:perspective>
</defs>
<sodipodi:namedview  fit-margin-top="0" objecttolerance="10" showgrid="false" bordercolor="#666666" pagecolor="#ffffff" borderopacity="1" gridtolerance="10" inkscape:cx="393.518" fit-margin-left="0" id="namedview4" inkscape:zoom="0.35355339" inkscape:cy="557.11198" guidetolerance="10" inkscape:window-y="0" inkscape:pageshadow="2" inkscape:window-height="675" inkscape:window-width="984" fit-margin-right="0" inkscape:snap-global="true" inkscape:pageopacity="0" inkscape:window-x="2" fit-margin-bottom="0" inkscape:window-maximized="0" inkscape:current-layer="svg2">
	</sodipodi:namedview>
<path d="M671.246,269.541h-6.952c-18.139,0-46.915,5.131-68.166,12.134c-43.011,14.172-81.403,41.654-105.64,75.584
	c-27.768,38.835-45.474,73.354-66.874,130.168c-32.305,85.865-51.833,122.407-80.988,151.562
	c-24.987,24.985-43.625,33.408-82.573,37.319l-8.135,0.813v4.287h-0.127v47.33v47.277h0.102v5.524l8.716-0.011
	c4.801-0.006,14.922-0.788,22.527-1.773c68.079-8.57,116.833-36.552,153.324-88.12c19.019-26.84,38.422-61.443,55.058-98.226
	l6.472-14.338l58.977-0.291l58.975-0.292v-9.782h0.042v-48.072v-48.041h-38.436c-20.786,0-31.039,0.209-35.524-0.819
	c0.003-0.002,0.007-0.008,0.01-0.015c15.512-33.197,42.981-66.837,65.34-79.938c16.824-9.852,34.204-15.185,55.737-17.068
	l8.093-0.686"/>
</svg>
