<?xml version="1.0" encoding="utf-8"?>
<!-- Generator: Adobe Illustrator 16.0.0, SVG Export Plug-In . SVG Version: 6.00 Build 0)  -->
<!DOCTYPE svg PUBLIC "-//W3C//DTD SVG 1.1//EN" "http://www.w3.org/Graphics/SVG/1.1/DTD/svg11.dtd">
<svg version="1.1"
	 id="Layer_1" xmlns:cc="http://creativecommons.org/ns#" xmlns:dc="http://purl.org/dc/elements/1.1/" xmlns:inkscape="http://www.inkscape.org/namespaces/inkscape" xmlns:rdf="http://www.w3.org/1999/02/22-rdf-syntax-ns#" xmlns:sodipodi="http://sodipodi.sourceforge.net/DTD/sodipodi-0.dtd" xmlns:svg="http://www.w3.org/2000/svg"
	 xmlns="http://www.w3.org/2000/svg" xmlns:xlink="http://www.w3.org/1999/xlink" x="0px" y="0px" width="512px" height="512px"
	 viewBox="-31.5 32.5 512 512" enable-background="new -31.5 32.5 512 512" xml:space="preserve">
<path id="path4846" fill="#231F20" d="M235.227,32.498c80.921,0.096,76.406,85.392,75.931,131.391
	c-0.356,30.078,16.233,50.433,33.231,71.915c15.238,17.977,35.113,44.291,46.579,74.512c9.234,24.507,12.911,51.713,3.743,79.011
	c2.806,1.115,5.42,2.603,8.131,4.957c0.024,0.009,0.038-0.008,0.05,0c6.619,5.69,8.712,14.393,10.498,22.385
	c1.928,8.142,3.625,15.65,7.281,19.755v0.034c10.929,12.287,15.764,21.403,15.315,29.598c-0.447,8.061-6.527,13.72-13.969,18.229
	c-14.883,8.992-37.309,15.751-50.872,32.193l-2.563-2.165l2.563,2.201c-14.142,16.902-31.76,26.544-48.276,27.832
	c-16.504,1.354-31.928-6.268-40.232-22.875c-0.011-0.016,0.012-0.063,0-0.093c-1.156-2.222-2.02-4.391-2.674-6.765
	c-21.479,1.201-40.106-5.266-55.03-4.116c-21.992,1.212-35.784,6.564-48.344,6.636c-4.813,10.647-14.25,17.578-25.852,20.174
	c-16.059,3.679-36.147,0.027-55.97-10.329v-0.036c-18.529-9.828-41.987-8.82-59.333-12.473c-8.674-1.816-16.366-5.01-20.105-12.34
	c-3.723-7.196-3.024-17.284,2.239-31.745c1.655-5.085,0.397-12.624-0.835-20.723c-1.231-7.97-2.399-16.651,1.623-24.293
	c0-0.011,0-0.026,0-0.036c4.477-8.45,11.824-12.024,18.537-14.451c6.659-2.37,12.705-3.93,16.982-8.283
	c4.562-4.735,8.686-12.006,14.244-17.879c0.749-0.803,1.465-1.595,2.287-2.359c-2.621-17.137,0.206-35.503,6.169-53.335
	c12.603-37.856,39.253-74.204,58.118-96.688c16.092-22.877,20.837-41.296,22.49-64.668c1.378-31.99-22.605-127.478,67.751-134.752
	C228.56,32.615,231.933,32.498,235.227,32.498L235.227,32.498z M245.969,103.313c-4.651,0.061-8.625,1.5-12.671,4.532
	c-3.933,3.05-6.828,6.814-9.197,12.068c-2.352,5.212-3.301,10.358-3.259,16.358v0.459c0.025,1.725,0.233,3.281,0.382,4.88
	c3.663,0.85,7.459,2.279,11.574,4.331c-0.311-1.634-0.405-3.292-0.38-5.129c0-0.143,0.019-0.224,0.05-0.38
	c0.2-3.316,0.701-6.143,1.894-8.942c1.175-2.84,2.553-4.847,4.506-6.412c1.749-1.529,3.444-2.208,5.472-2.217
	c0.065,0,0.269-0.009,0.349,0c2.11,0.079,3.838,0.871,5.704,2.634c1.753,1.71,3.009,3.797,3.928,6.701
	c1.017,2.799,1.454,5.507,1.296,8.654c0,0.168-0.05,0.239-0.05,0.378c-0.071,3.301-0.622,6.08-1.797,8.908
	c-0.792,1.873-1.657,3.41-2.776,4.676c2.902,1.011,6.478,2.275,11.023,4.194c0.57,0.271,1.293,0.569,1.833,0.832
	c1.889-2.137,3.291-4.651,4.598-7.658c2.331-5.211,3.442-10.343,3.268-16.358c-0.027-0.171-0.034-0.346-0.034-0.474
	c-0.071-5.888-1.224-10.821-3.461-15.849c-2.411-5.186-5.355-8.92-9.462-11.92c-4.063-2.913-7.9-4.264-12.49-4.264H245.969
	L245.969,103.313z M182.584,108.338c-3.344,0.176-6.164,1.553-8.906,4.33c-2.742,2.731-4.7,6.049-6.132,10.668
	c-1.37,4.638-1.959,9.102-1.7,14.319v0.038c0.345,5.181,1.384,9.554,3.292,13.989c1.641,3.71,3.537,6.49,5.961,8.745
	c1.076-0.814,2.039-1.485,2.773-2.078c1.237-0.929,1.977-1.446,3.465-2.635c-0.228-0.167-0.461-0.352-0.692-0.564
	c-1.451-1.262-2.582-2.849-3.5-5.162c-0.976-2.196-1.561-4.407-1.804-7.049v-0.288c-0.229-2.715-0.067-5.117,0.45-7.52
	c0.588-2.406,1.382-4.255,2.602-5.72c1.218-1.47,2.51-2.235,4.017-2.376c0.167-0.017,0.324,0,0.417,0
	c1.395-0.017,2.627,0.511,3.916,1.616c1.45,1.25,2.602,2.864,3.605,5.162c0.89,2.238,1.488,4.458,1.731,7.038
	c0,0.141-0.016,0.204,0,0.344c0.195,1.941,0.166,3.729-0.066,5.445c2.507-1.664,5.407-3.135,8.697-4.238
	c0.593-0.198,1.123-0.404,1.731-0.583c0.185-2.014,0.196-4.097,0.107-6.257c-0.331-5.217-1.351-9.604-3.259-13.981
	c-1.909-4.392-4.311-7.534-7.382-9.951c-2.771-2.256-5.46-3.29-8.525-3.29C183.143,108.338,182.829,108.327,182.584,108.338
	L182.584,108.338z M211.903,144.275c-3.711,0.013-7.003,0.674-9.945,1.7c-8.642,2.958-14.391,9.161-17.952,12.58
	c-0.671,0.653-1.625,1.285-3.777,2.911c-2.23,1.632-5.559,4.055-10.327,7.624c-4.279,3.155-5.69,7.333-4.23,12.198
	c1.469,4.833,6.196,10.441,14.799,15.283v0.035c5.334,3.113,8.91,7.295,13.064,10.676c4.154,3.333,8.811,5.969,16.497,6.411
	c9.066,0.484,15.704-2.202,21.553-5.546c5.978-3.344,10.998-7.462,16.727-9.322v-0.043c11.697-3.675,20.035-11.064,22.751-18.083
	c1.285-3.509,1.281-6.828-0.315-9.912c-1.596-3.08-4.864-5.998-10.293-8.246c-11.295-4.825-16.251-5.202-22.666-9.325
	c-10.317-6.623-18.72-8.924-25.852-8.906L211.903,144.275L211.903,144.275z M261.389,173.632l0.28,3.775
	c-1.71,0.139-4.824,1.412-8.316,3.432c-3.625,1.951-7.808,4.601-12.406,7.277c-9.343,5.352-20.22,10.743-31.888,10.743
	c-11.583,0-20.71-5.333-27.307-10.535c-3.299-2.63-6.009-5.191-8.041-7.069c-1.016-0.975-1.846-1.764-2.461-2.219
	c-0.318-0.263-0.684-0.387-0.728-0.416c-0.096-0.018,0.038-0.007,0.103-1.004l0.141-2.913c1.409,0,2.047,0.614,2.876,1.248
	c0.83,0.634,1.707,1.485,2.737,2.46c2.059,1.908,4.689,4.403,7.799,6.868c6.22,4.94,14.504,9.799,24.879,9.799
	c10.438,0,20.827-5.076,29.909-10.289c4.541-2.643,8.718-5.306,12.44-7.383C255.131,175.332,258.392,173.821,261.389,173.632
	L261.389,173.632z M271.715,187.492c-4.361,6.404-12.398,11.845-22.301,14.949c-4.658,1.561-9.615,5.498-15.816,9.032
	c-6.206,3.539-13.779,6.668-23.773,6.136c-8.505-0.54-14.189-3.688-18.644-7.35c-4.521-3.583-8.012-7.548-12.681-10.326
	c-1.541-0.876-5.068-3.314-6.102-4.02c-2.027,37.824-27.257,85.312-39.37,112.73c-8.282,19.624-13.268,40.705-13.864,61.381
	c-21.76-29.014-5.83-66.253,2.67-82.377c9.501-17.686,10.958-22.461,8.664-20.779c-8.594,14.003-21.929,36.249-27.196,59.178
	c-2.72,11.95-3.236,24.005,0.304,35.174c3.527,11.17,11.083,21.485,24.606,29.836c18.377,11.375,30.822,22.611,38.225,32.578
	c7.401,9.966,9.71,18.685,7.417,24.896c-1.184,3.159-3.479,5.575-6.793,6.987c-2.673,1.219-5.979,1.943-9.877,1.943
	c2.006,2.479,3.949,4.971,5.928,7.484c2.98,4.021,5.892,7.948,8.489,12.024c37.821,25.89,82.321,15.981,114.467-7
	c3.232-10.886,6.304-21.251,6.899-28.973c0.646-15.241,1.469-28.671,4.292-39.989c2.829-11.192,7.819-20.293,16.981-25.301
	c1.541-0.814,2.907-1.395,4.439-2.013c0.066-0.903,0.302-1.812,0.415-2.821c2.582-17.459,18.236-18.294,37.916-9.652
	c18.788,8.595,25.964,16.042,22.767,26.095c0.076-0.009,0.166,0,0.382,0c1.243-0.017,2.502-0.03,3.777,0
	c3.86-12.786-4.198-22.061-26.375-32.814c-1.421-0.747-2.922-1.444-4.315-1.979c2.952-11.987,2.261-24.062-0.475-35.623
	c-6.008-25.44-22.583-47.858-35.272-59.021c-2.242-0.118-2.081,1.942,2.578,6.495c11.741,10.72,37.103,49.218,23.381,84.856
	c-4.004-0.942-7.685-1.561-11.021-1.35c-5.159-29.18-17.417-53.324-23.567-64.706C297.327,261.786,279.476,217.878,271.715,187.492
	L271.715,187.492z M334.793,361.536c-6.114,0.019-10.277,3.077-11.127,10.429c-1.621,10.75,3.248,24.93,13.138,27.588
	c9.616,2.581,23.73-7.396,27.029-13.653c3.989-8.456-0.521-14.038-14.904-20.655C343.587,362.827,338.852,361.523,334.793,361.536
	L334.793,361.536z M318.575,381.111c-0.355,0.251-0.717,0.366-1.078,0.512c-7.084,3.95-11.128,10.922-13.652,21.055
	c-2.526,10.255-3.37,23.515-4.159,38.736v0.033c-0.763,11.898-6.154,26.398-9.911,40.618c-3.758,14.221-5.72,27.631-1.215,36.179
	l0.034,0.032v0.042c7.304,14.56,19.457,20.496,33.759,19.334c14.155-1.157,30.293-9.84,43.523-25.577
	c15.258-18.417,39.154-25.534,52.661-33.578c6.713-4.087,10.398-7.812,10.6-12.821c0.316-5.037-3.067-13.032-13.664-24.679v-0.034
	c-5.443-6.174-6.838-14.824-8.736-22.734c-1.765-7.908-3.847-14.972-8.316-18.718h-0.034c-5.771-5.148-11.442-5.58-18.127-5.33
	c-1.415,0.023-2.932,0.063-4.506,0.103c-7.585,8.764-25.73,19.705-38.398,16.391C325.826,407.767,319.388,394.289,318.575,381.111
	L318.575,381.111z M87.187,382.19c-6.053,0.028-10.106,2.896-14.114,7.136c-4.765,5.046-8.87,12.313-14.278,18.059v0.035h-0.066
	c-5.878,5.847-13.303,7.581-19.549,9.911c-6.284,2.185-11.33,4.598-14.782,11.226l-0.047,0.033
	c-2.689,4.982-2.045,12.184-0.833,20.102c1.216,7.871,3.031,16.217,0.541,23.923v0.06v0.069
	c-5.053,13.685-5.051,21.718-2.659,26.372c2.339,4.589,7.51,7.048,15.417,8.701c15.806,3.301,40.418,2.173,61.111,13.2
	c18.732,9.696,37.493,12.91,51.317,9.708c13.774-3.071,22.795-11.748,24.018-27.763v-0.033v-0.034
	c0.959-9.41-6.266-21.59-15.62-33.826c-9.31-12.114-20.248-24.041-25.449-34.986v-0.053c-6.45-13.807-12.83-26.439-19.613-35.589
	c-6.721-9.149-13.708-14.821-21.764-16.048c-1.203-0.113-2.362-0.2-3.422-0.202H87.187L87.187,382.19z"/>
</svg>
